# AST/ASF file generated using VICON BodyLanguage
# -----------------------------------------------
:version 1.10
:name VICON
:units
  mass 1.0
  length 0.45
  angle deg
:documentation
   .ast/.asf automatically generated from VICON data using
   VICON BodyBuilder and BodyLanguage model FoxedUp or BRILLIANT.MOD
:root
   order TX TY TZ RX RY RZ
   axis XYZ
   position 0 0 0  
   orientation 0 0 0 
:bonedata
  begin
     id 1 
     name lhipjoint
     direction 0.603808 -0.713975 0.35448 
     length 2.2025 
     axis 0 0 0  XYZ
  end
  begin
     id 2 
     name lfemur
     direction 0.34202 -0.939693 0  
     length 6.55877  
     axis 0 0 20  XYZ
    dof rx ry rz
    limits (-160.0 20.0)
           (-70.0 70.0)
           (-60.0 70.0)
  end
  begin
     id 3 
     name ltibia
     direction 0.34202 -0.939693 0   
     length 6.80302   
     axis 0 0 20   XYZ
    dof rx
    limits (-10.0 170.0)
  end
  begin
     id 4 
     name lfoot
     direction 0.091848 -0.25235 0.963267   
     length 2.03446   
     axis -90 7.62852e-016 20   XYZ
    dof rx rz
    limits (-45.0 90.0)
           (-70.0 20.0)
  end
  begin
     id 5 
     name ltoes
     direction 1.53608e-011 -4.21925e-011 1   
     length 1.02033   
     axis -90 7.62852e-016 20   XYZ
    dof rx
    limits (-90.0 20.0)
  end
  begin
     id 6 
     name rhipjoint
     direction -0.587285 -0.724947 0.359928   
     length 2.16916  
     axis 0 0 0  XYZ 
  end
  begin
     id 7 
     name rfemur
     direction -0.34202 -0.939693 0   
     length 6.43173   
     axis 0 0 -20   XYZ
    dof rx ry rz
    limits (-160.0 20.0)
           (-70.0 70.0)
           (-70.0 60.0)
  end
  begin
     id 8 
     name rtibia
     direction -0.34202 -0.939693 0   
     length 6.70662   
     axis 0 0 -20   XYZ
    dof rx
    limits (-10.0 170.0)
 end
 begin
     id 9 
     name rfoot
     direction -0.11854 -0.325686 0.938018   
     length 2.0773  
     axis -90 -7.62852e-016 -20   XYZ
    dof rx rz
    limits (-45.0 90.0)
           (-20.0 70.0)
  end
  begin
     id 10 
     name rtoes
     direction -1.53547e-011 -4.21838e-011 1   
     length 1.03267   
     axis -90 -7.62852e-016 -20   XYZ
    dof rx
    limits (-90.0 20.0)
  end
  begin
     id 11 
     name lowerback
     direction -0.0286554 0.999539 0.0100613   
     length 2.08751   
     axis 0 0 0   XYZ
    dof rx ry rz
    limits (-20.0 45.0)
           (-30.0 30.0)
           (-30.0 30.0)
  end
  begin
     id 12 
     name upperback
     direction 0.0227093 0.999705 -0.00860929   
     length 2.08517   
     axis 0 0 0   XYZ
    dof rx ry rz
    limits (-20.0 45.0)
           (-30.0 30.0)
           (-30.0 30.0)
  end
  begin
     id 13 
     name thorax
     direction 0.0351627 0.999285 -0.013892   
     length 2.08412   
     axis 0 0 0   XYZ
    dof rx ry rz
    limits (-20.0 45.0)
           (-30.0 30.0)
           (-30.0 30.0)
  end
  begin
     id 14 
     name lowerneck
     direction -0.0696283 0.997344 0.0213922   
     length 1.44164   
     axis 0 0 0   XYZ
    dof rx ry rz
    limits (-20.0 45.0)
           (-30.0 30.0)
           (-30.0 30.0)
  end
  begin
     id 15 
     name upperneck
     direction 0.0531 0.990412 -0.127531   
     length 1.45022   
     axis 0 0 0   XYZ
    dof rx ry rz
    limits (-20.0 45.0)
           (-30.0 30.0)
           (-30.0 30.0)
  end
  begin
     id 16
     name head
     direction 0.0188154 0.998548 -0.0504727  
     length 1.45845  
     axis 0 0 0   XYZ
    dof rx ry rz
    limits (-20.0 45.0)
           (-30.0 30.0)
           (-30.0 30.0)
  end
  begin
     id 17 
     name lclavicle
     direction 0.961559 0.260051 0.088188  
     length 2.86057  
     axis 0 0 0   XYZ
    dof ry rz
    limits (-20.0 10.0)
           (0.0 20.0)
  end
  begin
     id 18 
     name lhumerus
     direction 1 -4.48959e-011 2.88185e-027   
     length 4.36901   
     axis 180 -30 -90   XYZ
    dof rx ry rz
    limits (-60.0 90.0)
           (-90.0 90.0)
           (-90.0 90.0)
  end
  begin
     id 19
     name lradius
     direction 1 -4.48965e-011 -3.92618e-028   
     length 3.21737   
     axis 180 -30 -90   XYZ
    dof rx
    limits (-10.0 170.0)
  end
  begin
     id 20
     name lwrist
     direction 1 -4.49037e-011 2.57246e-027   
     length 1.60869   
     axis -1.61769e-015 90 90   XYZ
    dof ry
    limits (-180.0 0.0)
 end
  begin
     id 21 
     name lhand
     direction 1 -4.48807e-011 5.12958e-027   
     length 0.564313   
     axis -3.27988e-015 90 90   XYZ
    dof rx rz
    limits (-90.0 90.0)
           (-45.0 45.0)
  end
  begin
     id 22 
     name lfingers
     direction 1 -4.48879e-011 1.02687e-026   
     length 0.454963   
     axis -6.5598e-015 90 90   XYZ
    dof rx
    limits (0.0 90.0)
  end
  begin
     id 23
     name lthumb
     direction 0.707107 -6.3475e-011 0.707107   
     length 0.653239   
     axis -90 45 2.19363e-014   XYZ
    dof rx rz
    limits (-45.0 45.0)
           (-45.0 45.0)
  end
  begin
     id 24 
     name rclavicle
     direction -0.954677 0.253915 0.155304   
     length 3.11497  
     axis 0 0 0   XYZ 
    dof ry rz
    limits (-10.0 20.0)
           (-20.0 0.0)
  end
  begin
     id 25 
     name rhumerus
     direction -1 -4.48958e-011 -8.20169e-028  
     length 4.34118   
     axis 180 30 90   XYZ
    dof rx ry rz
    limits (-90.0 60.0)
           (-90.0 90.0)
           (-90.0 90.0)
  end
  begin
     id 26 
     name rradius
     direction -1 -4.48978e-011 1.5676e-027   
     length 3.09531   
     axis 180 30 90   XYZ
    dof rx
    limits (-10.0 170.0)
  end
  begin
     id 27 
     name rwrist
     direction -1 -4.49001e-011 2.57123e-027   
     length 1.54765   
     axis -1.61769e-015 -90 -90   XYZ
    dof ry
    limits (-180.0 0.0)
  end
  begin
     id 28
     name rhand
     direction -1 -4.48847e-011 5.13225e-027   
     length 0.597446   
     axis -3.27988e-015 -90 -90   XYZ
    dof rx rz
    limits (-90.0 90.0)
           (-45.0 45.0)
  end
  begin
     id 29
     name rfingers
     direction -1 -4.49094e-011 1.02974e-026   
     length 0.481677   
     axis -6.5598e-015 -90 -90   XYZ
    dof rx
    limits (0.0 90.0)
  end
  begin
     id 30
     name rthumb
     direction -0.707107 -6.34859e-011 0.707107   
     length 0.691594   
     axis -90 -45 -2.19363e-014   XYZ
    dof rx rz
    limits (-45.0 45.0)
           (-45.0 45.0)
  end
:hierarchy
  begin
    root lhipjoint rhipjoint lowerback
    lhipjoint lfemur
    lfemur ltibia
    ltibia lfoot
    lfoot ltoes
    rhipjoint rfemur
    rfemur rtibia
    rtibia rfoot
    rfoot rtoes
    lowerback upperback
    upperback thorax
    thorax lowerneck lclavicle rclavicle
    lowerneck upperneck
    upperneck head
    lclavicle lhumerus
    lhumerus lradius
    lradius lwrist
    lwrist lhand lthumb
    lhand lfingers
    rclavicle rhumerus
    rhumerus rradius
    rradius rwrist
    rwrist rhand rthumb
    rhand rfingers
  end

#!OML:ASF E:\I on waltz\Acrobat_Osman\acrobat\cartwheel_test 2\Patient 1\Session 1\acrobat.ASF
:FULLY-SPECIFIED
:DEGREES
33
root 14.7965 13.1775 -17.8707 -156.666 -65.9623 186.193
lowerback 24.2738 -0.823263 -7.54622
upperback 12.2297 -3.96273 4.01112
thorax 0.930536 -3.10119 9.61937
lowerneck -13.4263 4.04259 -7.76838
upperneck -6.90181 5.86327 -5.97636
head -0.02192 2.82712 -0.368029
rclavicle 4.77083e-015 -2.38542e-014
rhumerus -77.8286 -21.357 -0.527438
rradius 22.8341
rwrist -1.29961
rhand -31.4704 11.7299
rfingers 7.12502
rthumb -4.73736 -18.1971
lclavicle 4.77083e-015 -2.38542e-014
lhumerus -11.6199 16.9882 -4.25483
lradius 58.0097
lwrist 55.3795
lhand -20.4623 45.8269
lfingers 7.12502
lthumb 5.89346 75.7249
rfemur -78.8807 -5.90518 10.9352
rtibia 64.0495
rfoot -24.4306 -0.319959
rtoes -21.7057
lfemur -75.3617 36.8504 -18.5717
ltibia 82.1654
lfoot -16.3766 12.6152
ltoes -21.7473
34
root 14.9114 12.9699 -17.859 -158.297 -68.9922 188.912
lowerback 25.4632 0.0420732 -6.83817
upperback 12.6205 -2.81008 3.67946
thorax 0.470181 -2.47646 8.64418
lowerneck -12.7413 3.35222 -7.65255
upperneck -7.3159 4.84292 -5.92177
head -0.250898 2.35434 -0.4242
rclavicle -7.15625e-014 6.75868e-015
rhumerus -75.5197 -24.5169 -6.83485
rradius 22.2837
rwrist 0.4921
rhand -31.7427 13.0796
rfingers 7.12502
rthumb -5.00031 -16.8414
lclavicle -7.15625e-014 6.75868e-015
lhumerus -12.2991 15.8748 -0.786589
lradius 58.286
lwrist 57.1699
lhand -20.5884 48.2432
lfingers 7.12502
lthumb 5.77176 78.1446
rfemur -81.1297 -6.00957 10.9159
rtibia 66.7994
rfoot -25.94 -1.77192
rtoes -21.3451
lfemur -80.0388 36.8305 -19.1028
ltibia 83.8669
lfoot -16.3831 10.6731
ltoes -21.4141
35
root 15.0011 12.7772 -17.8601 -161.672 -72.2248 193.243
lowerback 26.8201 0.928645 -6.41155
upperback 12.863 -1.67682 3.74347
thorax -0.135367 -1.88312 8.25886
lowerneck -12.2119 2.76223 -7.75079
upperneck -7.48205 3.99855 -6.2614
head -0.37528 1.95322 -0.550093
rclavicle -8.90555e-014 1.04958e-013
rhumerus -70.5292 -27.5083 -14.177
rradius 21.6197
rwrist 2.04485
rhand -32.0525 14.4396
rfingers 7.12502
rthumb -5.29942 -15.4742
lclavicle -8.90555e-014 1.04958e-013
lhumerus -13.2353 15.7828 4.08825
lradius 58.507
lwrist 57.7921
lhand -19.5637 49.6755
lfingers 7.12502
lthumb 6.76104 79.5476
rfemur -82.9937 -5.99585 11.0036
rtibia 69.571
rfoot -26.9266 -4.13267
rtoes -21.6235
lfemur -84.5841 36.6562 -19.4976
ltibia 85.315
lfoot -16.056 9.29868
ltoes -22.4677
36
root 15.097 12.5873 -17.8971 -167.161 -75.6907 199.764
lowerback 28.0982 1.60727 -6.1221
upperback 13.2099 -0.844607 3.68164
thorax -0.498352 -1.45952 7.84342
lowerneck -12.8508 2.21893 -8.08373
upperneck -7.3386 3.39244 -6.19816
head -0.234101 1.63894 -0.485957
rclavicle -4.13472e-014 -2.26615e-014
rhumerus -62.6473 -30.9027 -22.7912
rradius 20.5904
rwrist 4.28293
rhand -31.8142 12.4436
rfingers 7.12502
rthumb -5.06933 -17.4757
lclavicle -4.13472e-014 -2.26615e-014
lhumerus -14.6879 16.2811 8.66886
lradius 59.1006
lwrist 59.344
lhand -20.3799 49.6487
lfingers 7.12502
lthumb 5.97306 79.5445
rfemur -84.851 -5.5339 10.7851
rtibia 72.5204
rfoot -27.3474 -7.52929
rtoes -21.2531
lfemur -89.5118 36.5505 -20.3173
ltibia 86.5113
lfoot -15.6691 7.93595
ltoes -23.6871
37
root 15.1642 12.3888 -17.9603 -178.107 -78.8657 211.813
lowerback 28.6603 1.97886 -4.90614
upperback 13.8439 -0.190477 2.70675
thorax -0.195033 -1.07449 5.85559
lowerneck -14.2402 1.5311 -7.12912
upperneck -6.93827 2.54588 -5.55448
head 0.131263 1.16247 -0.449965
rclavicle 2.14687e-014 1.98785e-015
rhumerus -53.4434 -35.6067 -32.0398
rradius 19.0156
rwrist 8.02405
rhand -33.1222 16.7346
rfingers 7.12502
rthumb -6.33215 -13.1508
lclavicle 2.14687e-014 1.98785e-015
lhumerus -15.0886 16.5612 12.1892
lradius 59.0114
lwrist 58.5344
lhand -22.0302 47.1073
lfingers 7.12502
lthumb 4.37961 77.042
rfemur -86.6812 -4.86334 10.8136
rtibia 75.5203
rfoot -27.959 -10.0764
rtoes -19.6273
lfemur -94.5757 36.4845 -21.0996
ltibia 87.644
lfoot -15.2527 6.74579
ltoes -24.1773
38
root 15.2029 12.1792 -18.0438 -198.348 -81.2469 233.233
lowerback 29.4107 2.50854 -4.62293
upperback 13.757 0.553057 2.21965
thorax -0.734657 -0.628681 4.95001
lowerneck -13.2937 1.56929 -6.96338
upperneck -8.18538 2.43976 -5.08281
head -0.418767 1.19323 -0.353961
rclavicle 4.13472e-014 -2.04748e-014
rhumerus -40.37 -35.6546 -45.0055
rradius 19.2855
rwrist 4.64665
rhand -36.6195 16.1383
rfingers 7.12502
rthumb -9.70751 -13.618
lclavicle 4.13472e-014 -2.04748e-014
lhumerus -16.3281 17.3971 15.4559
lradius 58.9261
lwrist 60.3945
lhand -21.7025 50.1874
lfingers 7.12502
lthumb 4.69603 80.1154
rfemur -88.5997 -4.87276 11.902
rtibia 78.5
rfoot -28.5191 -11.3294
rtoes -18.7857
lfemur -100.143 36.4133 -22.1322
ltibia 88.6798
lfoot -14.3856 5.47252
ltoes -25.193
39
root 15.2167 11.9628 -18.1403 -227.2 -81.7073 263.343
lowerback 30.9544 4.02279 -6.75367
upperback 12.3149 2.03791 3.73736
thorax -3.01652 0.137595 6.92579
lowerneck -11.1852 1.354 -7.31872
upperneck -8.20865 1.97539 -6.31716
head -0.744096 1.01947 -0.708993
rclavicle 4.37326e-014 2.40529e-014
rhumerus -27.6088 -30.8069 -54.4094
rradius 21.059
rwrist -2.37177
rhand -32.4888 18.6434
rfingers 7.12502
rthumb -5.72064 -11.2594
lclavicle 4.37326e-014 2.40529e-014
lhumerus -19.5167 16.275 20.6754
lradius 59.2977
lwrist 61.7501
lhand -20.5848 52.5634
lfingers 7.12502
lthumb 5.77526 82.4647
rfemur -90.4753 -5.1507 13.5507
rtibia 81.327
rfoot -28.612 -11.7097
rtoes -17.2571
lfemur -105.917 36.1726 -23.1741
ltibia 89.7012
lfoot -13.2295 3.94283
ltoes -26.3767
40
root 15.2092 11.7788 -18.2359 -256.869 -80.0215 294.212
lowerback 30.2112 4.68814 -6.66094
upperback 12.7137 3.02309 3.32797
thorax -2.67425 0.642108 6.61312
lowerneck -11.4174 0.829525 -5.99311
upperneck -8.54636 1.07295 -7.28468
head -0.79262 0.53357 -1.25074
rclavicle 3.33958e-014 5.08889e-014
rhumerus -14.167 -27.1837 -64.0121
rradius 23.8616
rwrist -6.8121
rhand -31.7784 19.3405
rfingers 7.12502
rthumb -5.03481 -10.5797
lclavicle 3.33958e-014 5.08889e-014
lhumerus -19.6117 17.1801 24.3334
lradius 58.8998
lwrist 62.8432
lhand -20.6064 53.3397
lfingers 7.12502
lthumb 5.75436 83.2415
rfemur -91.8031 -6.126 15.3133
rtibia 83.8707
rfoot -28.6772 -12.1858
rtoes -13.9263
lfemur -110.599 34.4947 -23.1184
ltibia 90.3631
lfoot -12.012 2.72806
ltoes -25.6166
41
root 15.1837 11.6242 -18.3485 -273.13 -76.31 311.7
lowerback 29.8105 5.26917 -5.69989
upperback 12.5884 4.03247 2.15616
thorax -2.67562 1.24029 4.41058
lowerneck -11.8245 0.175657 -3.3324
upperneck -8.77571 -0.102391 -7.80711
head -0.799036 -0.131624 -1.90204
rclavicle -7.15625e-015 -6.35117e-014
rhumerus -2.14883 -22.7073 -71.266
rradius 27.1459
rwrist -5.72098
rhand -31.4231 15.9459
rfingers 7.12502
rthumb -4.69168 -13.9822
lclavicle -7.15625e-015 -6.35117e-014
lhumerus -18.7388 17.4208 26.0937
lradius 58.0223
lwrist 64.6918
lhand -21.7782 52.3136
lfingers 7.12502
lthumb 4.62298 82.2432
rfemur -93.0946 -6.72767 17.4821
rtibia 86.4143
rfoot -29.2686 -13.9206
rtoes -12.6107
lfemur -115.236 32.9684 -22.6546
ltibia 91.074
lfoot -10.8806 1.4512
ltoes -21.416
